<svg xmlns="http://www.w3.org/2000/svg" fill="none" viewBox="0 0 590 332">
  <g clip-path="url(#a)">
    <path stroke="#8046F1" stroke-miterlimit="10" stroke-width="12" d="M590 293H459v-40H353V134H247.5l.34 80H141v119"/>
    <path fill="#322744" d="m393.41 121.1 32.01 81.44h38.26v43.85H395.7v-32.55h-14.48v32.7h-21.95v-88.46l34.14-36.98Z"/>
    <path stroke="#322744" stroke-linecap="round" stroke-linejoin="round" stroke-miterlimit="10" stroke-width="2" d="m463.97 202.7-31.78-82.01h-38.56l-34.38 37.28v88.53h104.72v-43.8Zm0 0h-38.52l-31.78-82.01m2.14 93.29h-14.59v32.52h14.59v-32.52Z"/>
    <path fill="#322744" d="M264.77 90.09h11.28v18.18h-11.12s.15-18.18-.16-18.18Zm6.1-37.89 28.2 43.54h59.29V51.9s-87.26.54-87.49.3Z"/>
    <path stroke="#322744" stroke-linecap="round" stroke-linejoin="round" stroke-miterlimit="10" stroke-width="2" d="M270.72 51.87h87.47v76.4H242.3V95.9l28.43-44.04Zm0 0 28.42 44.04h59.05m-81.9-5.96h-11.64v18.7h11.64v-18.7Zm-86.01-57.51 48.94 30.64m248.58 65.35a39.14 39.14 0 0 0 2.37-25.65 39.11 39.11 0 0 0-47.36-28.66 38.95 38.95 0 0 0-21.6 14.13l11.55-42.88m63.8 159.53 48.02-26.45M183.18 91.1c-.87.3-1.82.52-2.51-.11m0 0c-1.28-1.17-1.97-4.7-.86-6.24.8-1.12 2.5-1.48 3.63.38l2.38-6.17 6.28-2.18m-11.43 14.2-5.33 3.5m29.98 103.27v10.85l32.76 18.7s2.87-4.96-2.15-11.67c-5.03-6.71-11.87-8.78-11.32-18.05m-80.5-3.39h7.27m8.17-22.52h21.1m38.84-45.1c3.78-.15 8.42-4.09 8.03-10.4-.34-5.61-4.74-8.39-14.7-8.39-6.31 0-24.88.4-24.88.4m-1.24 27.51 4.66 2.13m53.13 135.01-21.57 17.4s-46.06-55.49-64.65-79.16c-10.71-13-7.17-27.58-2.47-37.63m45-29.43v53.57h23.81s.05-13.61 1.83-39.33c1.1-16.11-.54-34.41-14.99-34.41-20.64 0-29 35.75-32.64 61.63m3.15 12.47c23.21 28.59 62.51 74.5 62.51 74.5M190.8 208.5c7.08-1.94 11.5-5.25 14.38-10.74m-35.77-90.08s3.33 4.33 10.14 3.66c6.82-.66 8.07-3.56 8.07-3.56l1.31-6.47.25.15c1.07.58 2.2.85 3.25.8 2.09-.08 3.84-.81 4.63-3.06.46-1.31.26-2.75-.02-4.1-.27-1.34-3.3-14.85-3.3-14.85-.87-3.46-2.6-6.59-6.3-7.39-3.04-.65-6.45.13-9.12 1.64-2.6 1.47-4.83 4.1-5.04 8.7-.17 3.56.97 6.38 1.6 9.42.88 4.17.7 9.56-2.6 12.76-3.5 3.39-14.07 2.39-20.27 6.27-4.62 2.9-5.83 6.12-6.45 11.12-1.17 9.42-.49 64.53-1.21 69.95-1.5 11.22-14.4 6.85-14.4 19.12 0 5.25 3.67 11.74 5.58 12.45v-15.7h8.8c4.49 0 7.89-2.93 8.3-7.41"/>
    <path fill="#322744" d="m229.22 285.72 12.94 12.77 30.49-24.83s-2.34-2.15-7.34-.82-10 3.06-12.13 3.06c-2.14 0-5.92-1.32-5.92-1.32l-2.65-1.84-15.4 12.98ZM175.26 94.47l5.04-3.37-1-2.8.1-3.15 1.57-1.12 1.57.23.78.9 2.46-6.18 6.38-2.13s-1.22-3.6-4.7-3.93c-3.47-.34-8.28.45-9.96 1.9-1.68 1.47-3.47 4.05-3.92 5.73-.44 1.68-.33 5.17-.33 5.17l2.01 8.75Zm30.02 103.18 19.2-.08s-.24 3.6.98 5.9c1.22 2.29 6.45 8.02 9.15 10.56 2.7 2.54 4.98 8.19 4.4 9.98-.56 1.8-.97 3.36-.97 3.36l-32.92-19 .16-10.72Zm-54.08-3.55h-6.78l.5-12.8.5-56.6s.33-5.39 1.46-7.9c1.14-2.53 5.36-5.78 8.11-6.51 2.76-.73 13.96-3.1 13.96-3.1s1.3 1.47 3.16 2.53c1.86 1.05 5.27 2.1 7.05 1.79 1.79-.33 5.2-1.06 6.25-1.8 1.06-.72 2.2-1.78 2.2-1.78l28.95-.09s8.84 1.14 10.06 4.72c1.21 3.58 1.05 7.64-.5 9.68a19.5 19.5 0 0 1-4.13 3.74l-2.27.81s-5.76-4.55-11.03-2.85c-5.27 1.71-9.57 4.56-11.92 7.4-2.36 2.84-4.7 7.24-4.7 7.24l-6.22-3.22a24.86 24.86 0 0 1 2.3-4.5c5.85-8.93 15.25-15.55 28.54-15.27a1 1 0 1 0 .04-2c-14.1-.3-24.09 6.77-30.26 16.17a27.16 27.16 0 0 0-2.58 5.13 1 1 0 0 0 .17 1.01 30.3 30.3 0 0 0-1.24 4.39 44.4 44.4 0 0 0-.57 9.1c.44 5.2 2.03 7.56 2.03 7.56l-3.33 14.88h-22.39l.34-41.98a1 1 0 1 0-2-.01l-.34 42.52v.12a1 1 0 0 0 .06.41c.1.18-.14.55-.14.55l-4.97 13.27-.3 7.38Z"/>
  </g>
  <defs>
    <clipPath id="a">
      <path fill="#fff" d="M0 0h590v332H0z"/>
    </clipPath>
  </defs>
</svg>
